<?xml version="1.0" encoding="UTF-8" standalone="no"?><!DOCTYPE svg PUBLIC "-//W3C//DTD SVG 1.1//EN" "http://www.w3.org/Graphics/SVG/1.1/DTD/svg11.dtd"><svg width="100%" height="100%" viewBox="0 0 2250 2250" version="1.1" xmlns="http://www.w3.org/2000/svg" xmlns:xlink="http://www.w3.org/1999/xlink" xml:space="preserve" xmlns:serif="http://www.serif.com/" style="fill-rule:evenodd;clip-rule:evenodd;stroke-linejoin:round;stroke-miterlimit:2;"><path d="M2166.67,555.718l-0,1020.68c-0,51.504 -41.815,93.319 -93.32,93.319l-1849.95,0c-51.504,0 -93.319,-41.815 -93.319,-93.319l0,-1020.68c0,-51.505 41.815,-93.32 93.319,-93.32l1849.95,0c51.505,0 93.32,41.815 93.32,93.32Z" style="fill:#ebebeb;"/><g id="Logo"><g id="Ship"><path d="M1003.68,704.028l-197.562,-62.845l24.129,95.124l98.782,31.422l74.651,-63.701Z"/><path d="M945.564,544.771l-40.664,127.835l-98.781,-31.423l139.445,-96.412Z"/></g><g id="Sine"><path d="M2082.32,1125c0,258.71 -210.04,468.75 -468.75,468.75c-258.71,0 -468.75,-210.04 -468.75,-468.75l937.5,-0Z" style="fill:#2a90ab;"/><path d="M207.317,1125c0,-258.71 210.04,-468.75 468.75,-468.75c258.71,0 468.75,210.04 468.75,468.75l-937.5,-0Z" style="fill:#007999;"/></g></g></svg>